<svg xmlns="http://www.w3.org/2000/svg" viewBox="0 0 545.07 191.81" width="186" height="52">
  <title>Ресурс 1</title>
  <g id="Слой_2" data-name="Слой 2">
    <g id="Layer_1" data-name="Layer 1">
      <g>
        <g>
          <path d="M235.31,11.65c-9-5.59-14.15,10.88-8.65,16.29C235.87,37,245.82,18.18,235.31,11.65Z" fill="#070606"/>
          <path d="M211.19,16.28c-7.3.92-4.87,13.29,1.26,14C221.51,31.41,218.55,15.35,211.19,16.28Z" fill="#070606"/>
          <path d="M249.07,49.27c-2.44-10.35-15-16.44-27.21-12.36a22.48,22.48,0,0,0-11.22,7.81c-2.54,3.51-6.08,8-6.33,12.07.09-1.5,3.45-4.14,4.67-5.15,1.92-1.56,3.74-1.47,5.32-3.28C219,43,222.09,41.28,226.83,42c5.41.84,8.09,7.32,8.06,12.12,0,7-5.42,13.71-11.61,18.24a56.31,56.31,0,0,1-15.42,8.13c-10.66,3.76-26.73,3.45-28.51,5.41,1.08,1.67,4.35,1.43,6.33,1.43a69.32,69.32,0,0,0,11-.5,162.67,162.67,0,0,0,24.56-5.64C234.05,77.14,253,65.85,249.07,49.27Z" fill="#070606"/>
          <path d="M223,37s-39.09,41.36-11.65,77.86,59.21,40.22,94.08,33.8c0,0-43.89,14.36-83-12.34-42.72-29.2-32.72-62.94-30.66-70.13C198.73,42,223,37,223,37Z" fill="#070606"/>
          <path d="M51.23,23.13c.7-8.24,2.15-7.2-1.31-15.15A12.76,12.76,0,0,0,31.58,1.84C30.05,20.41,30,37.78,32.84,57.31c3.38,23.44,8.07,50.17,18.54,71.55,8.1,16.53,36.38,59.79,42.48,63C90.5,179,73.19,148,67,131.08,54,95.91,48.17,59.06,51.23,23.13Z" fill="#070606"/>
          <path d="M12.82,72.35c-3.53,6.81-8,13.1-10.56,11.16-6.93-5.22,4-20.77,6.79-25.1,6.07-9.57,16.3-17.67,24.06-25.35C49.1,17.23,70.44,1.72,93.3.09c34.87-2.48,12.41,51.5-6.2,64.53,6-7.4,36-1,37.23,22.94,1.86,37.25-21.43,46.58-34.13,46-4.66-.22-27-9.12-17.84-15.33C84.7,124.87,126.8,105,107.58,73.93,100,61.62,87.85,70.36,80.27,76.28c-2.33,1.82-8.93,7.42-12,4.64-3.71-3.4,6-8.64,8.22-10.71,12.31-11.4,31.11-55.87,10.79-60C69.32,6.64,28,43.15,12.82,72.35Z" fill="#070606"/>
          <path d="M186.18,90c-2.28-3.41-9.91,2-17.6,6.9-5.87,3.75-13.77,5.68-17.32,4.7C145.42,100,139,97.36,138,86.84c-1.5-14.94,16-29.54,28.54-32.55a41.14,41.14,0,0,1-1.39,4.24c-1,2.21-2.14,4.38-3,6.65-.72,1.86-1.6,4.14-1.21,6.18.74,3.92,4.26,1.1,5.57-.69,2.43-3.31,3.52-7.57,5.58-11.11,1.53-2.63,9.74-11.89,3.27-13.6-.4-.1-3.1-.17-3.12.22.4-12.13-16.37-1.73-20.08,1.46C146,52.86,140.62,58,136.23,64.89c-9.54,14.94-11.17,38.48,7.22,47.57,7.76,3.84,19.2,2.17,26.65-2.11C174.51,107.81,190.73,96.82,186.18,90Z" fill="#070606"/>
        </g>
        <path d="M425.22,88.61c.15,10.3.49,30.1,2,39.18l-19.11,2.62c-1.94-9.91-5.73-78.29,1.53-119.12l20,1.44S424,46.4,425.46,66.9c1.28.06,39.76-40.88,49.74-51l15.29,13.28c-10,10.14-48.81,45-50.15,46.17,15.25,14.08,43.51,35.23,52.9,44l-12.65,12.1C468,122.83,442.12,102,425.22,88.61Z"/>
        <path d="M358,35.79s16.75,16.39,22.17,22,10.09,11.28,10.39,15.52-2.37,6.66-4.32,9.06-2.41,1.67-2.41,1.67S379.79,70.17,372.7,60.7s-25-22.85-39.5-24.69-25.81,2.87-26.91,2.76-1.58-.35-.44-4.11.85-5.38,3.34-9,13.89-14.49,17.95-14.69S344.2,19.84,358,35.79Z" fill="#c30708"/>
        <path d="M354.09,113.82s-18.64,16.32-20.67,17.86-9.58,5.67-17.61-1.91-14.63-14.19-15.21-15-1.35-3-.23-3.36,4.76.78,16.34,2.93,24.62,1.9,30.39-1S361,108.45,354.09,113.82Z" fill="#c30708"/>
        <path d="M290.55,43.51s7.38-7.7,8.54-8.84S302.56,31,303,32.22s-3.53,10.67-5.13,19.43-3.65,19.41,1.28,33.4,8,19.81,8.77,22.16-2.19,2.41-5.14,2.22-7.19-1.23-8.8-2.38S281.05,91.77,276,87s-13.7-10.09-9.15-18.91S290.55,43.51,290.55,43.51Z" fill="#ef303c"/>
        <path d="M364.67,55.74l-.26.26a37.9,37.9,0,0,1,13.32,16.21c5.05,11.25,2.92,18.16,2.92,18.16s-11.74,13.07-25.1,17.94-31.71,6.09-36.66,3.82L314,109.85a90.64,90.64,0,0,0,25.64-10.6c13.12-8,23.65-30.14,23.7-37.13S364.67,55.74,364.67,55.74Z" fill="#ef303c"/>
        <path d="M359.62,61.95s-13.78-2.6-15.5-2.57-4.46,2.4-4.46,2.4,2.41,8.25,1.4,14.75a51.84,51.84,0,0,1-2.93,11s4.75,3.9,7.65,2,9.62-12.16,13.06-20.83S359.62,61.95,359.62,61.95Z" fill="#c30708"/>
        <path d="M331.86,58.61a16.9,16.9,0,0,1,5.92,14A30.74,30.74,0,0,1,333.36,87s-6.42.88-13.84-5.28S308,71.54,308,71.54,321,60.07,331.86,58.61Z" fill="#ef303c"/>
        <path d="M342.3,93.47A42.54,42.54,0,0,1,320,86.41C308.63,79,305.63,74.33,305.63,74.33s-4.08.7-5.15,2.72.61,8.72,5.83,19.1,7.25,11.47,7.25,11.47S328,105.46,342.3,93.47Z" fill="#f37e8a"/>
        <path d="M360.34,58.27s0-4.68-.62-5.86-9.38-9.24-21.07-11.76-26.11-4.49-35.83,7.3c0,0-3.77,13.54-2.74,21.14,0,0-.56,6.19,10.71-2.42S332.85,50.26,360.34,58.27Z" fill="#f37e8a"/>
        <path d="M392.84,20.59C382.61,5.83,377.76,3.5,377.76,3.5S367.36,16.55,373.7,30a55.49,55.49,0,0,0,16.35,20.36l.49-.48S403.07,35.36,392.84,20.59Z"/>
        <path d="M394.12,96.49a42.07,42.07,0,0,0-6.35,3.63c-3,2.14-10.32,7.94-13.36,17s1.1,20.69,1.1,20.69,6.17-5.46,11.58-9.22S401.47,110.1,394.77,96"/>
        <path d="M522,102.72l-14.23-.7c-1-1.44,4.79-62.84,18.5-87.13l18.82,9.88C537.49,37.79,523.26,78.16,522,102.72Zm.59,19.58c-.62,3.15-4.76,8.14-9.77,7.14s-8.28-6.48-7.66-9.63c1-5,4.2-9.58,11.14-8C521.6,113.16,523.2,119.16,522.58,122.31Z"/>
      </g>
    </g>
  </g>
</svg>
